<svg t="1665625887050" class="icon" viewBox="0 0 1024 1024" version="1.1" xmlns="http://www.w3.org/2000/svg" p-id="2518"
     width="16" height="16">
  <path
    d="M863.998549 0C952.223809 0 1024.000564 71.776756 1024.000564 160.002016v504.098267a39.992441 39.992441 0 1 1-80.001007 0v-504.098267c0-44.11263-35.880315-80.001008-80.001008-80.001008H160.00258c-44.11263 0-80.001008 35.888378-80.001008 80.001008v704.004031a79.476913 79.476913 0 0 0 23.431055 56.56189 79.46885 79.46885 0 0 0 56.569953 23.431055h703.995969c44.11263 0 80.001008-35.880315 80.001008-80.001008a39.992441 39.992441 0 1 1 80.001007 0c0 88.22526-71.776756 160.002016-160.002015 160.002016H160.00258c-42.733858 0-82.919811-16.642016-113.139905-46.86211A158.953827 158.953827 0 0 1 0.000564 864.006047V160.002016C0.000564 71.776756 71.77732 0 160.00258 0z m-42.000126 632.001512a39.992441 39.992441 0 1 1 0 80.001008H447.996533a39.992441 39.992441 0 1 1 0-80.001008z m0-160.002016a39.992441 39.992441 0 1 1 0 80.001008H200.003084a39.992441 39.992441 0 1 1 0-80.001008z m0-160.002016a39.992441 39.992441 0 1 1 0 80.001008H368.003588a39.992441 39.992441 0 1 1 0-79.992945z"
    fill="#919FA0" p-id="2519"></path>
</svg>
