<svg t="1665625827845" class="icon" viewBox="0 0 1024 1024" version="1.1" xmlns="http://www.w3.org/2000/svg" p-id="2088"
     width="16" height="16">
  <path
    d="M863.997984 0C952.223244 0 1024 71.776756 1024 160.002016v504.098267a39.992441 39.992441 0 1 1-80.001008 0v-504.098267c0-44.11263-35.880315-80.001008-80.001008-80.001008H160.002016c-44.11263 0-80.001008 35.880315-80.001008 80.001008v703.995968c0 44.11263 35.880315 80.001008 80.001008 80.001008h703.995968c44.11263 0 80.001008-35.880315 80.001008-80.001008a39.992441 39.992441 0 1 1 80.001008 0c0 88.22526-71.776756 160.002016-160.002016 160.002016H160.002016C71.776756 1024 0 952.223244 0 863.997984V160.002016C0 71.776756 71.776756 0 160.002016 0zM575.995969 632.001512a39.992441 39.992441 0 1 1 0 80.001008H202.002142a39.992441 39.992441 0 1 1 0-80.001008z m248.001511-160.002016a39.992441 39.992441 0 1 1 0 80.001008H202.002142a39.992441 39.992441 0 1 1 0-80.001008zM656.005039 311.99748a39.992441 39.992441 0 1 1 0 80.001008H202.002142a39.992441 39.992441 0 1 1 0-80.001008z"
    fill="#919FA0" p-id="2089"></path>
</svg>
