<svg t="1665627111417" class="icon" viewBox="0 0 1461 1024" version="1.1" xmlns="http://www.w3.org/2000/svg" p-id="3698"
     width="16" height="16">
  <path
    d="M1118.737258 0C1307.578966 0 1461.213483 153.542472 1461.213483 342.292135c0 223.381573-70.149753 391.110472-129.000989 492.486472-64.558022 111.201798-130.128539 169.661843-132.889887 172.101033a56.883775 56.883775 0 0 1-37.738427 14.266967 57.033348 57.033348 0 0 1-37.922517-99.707686c1.035506-0.931955 57.102382-51.809798 112.225798-148.123325 73.774022-128.851416 111.167281-273.868225 111.167281-431.034967 0-125.825438-102.423011-228.190921-228.317484-228.190921-125.882966 0-228.305978 102.365483-228.305977 228.190921 0 123.397753 100.386517 225.740225 223.78427 228.121888l3.152539 0.080539a57.067865 57.067865 0 0 1 55.572135 58.517573c-0.805393 31.490876-26.99218 56.492584-58.540585 55.549124l-2.611775-0.069034c-89.985438-1.794876-174.298607-38.164135-237.418427-102.4-63.257888-64.385438-98.096899-149.550022-98.096899-239.80009C776.272539 153.553978 929.907056 0 1118.737258 0zM342.476225 0C531.306427 0 684.929438 153.542472 684.929438 342.292135c0 223.381573-70.149753 391.110472-129.000989 492.486472C491.404944 945.99191 425.822921 1004.440449 423.061573 1006.87964a56.883775 56.883775 0 0 1-37.738427 14.266967 57.021843 57.021843 0 0 1-37.922517-99.707686c1.035506-0.943461 57.102382-51.809798 112.237304-148.123325 73.762517-128.851416 111.155775-273.868225 111.155775-431.034967 0-125.825438-102.423011-228.190921-228.305978-228.190921-125.894472 0-228.317483 102.365483-228.317483 228.190921 0 123.397753 100.386517 225.740225 223.78427 228.133393l3.164045 0.08054a57.067865 57.067865 0 0 1 55.572135 58.517573c-0.816899 31.490876-27.072719 56.492584-58.55209 55.537618l-2.611776-0.069034c-89.973933-1.794876-174.298607-38.152629-237.418427-102.4C34.839011 517.695281 0 432.530697 0 342.292135 0 153.542472 153.634517 0 342.476225 0z"
    fill="#919FA0" p-id="3699"></path>
</svg>
