<svg t="1665625338383" class="icon" viewBox="0 0 1024 1024" version="1.1" xmlns="http://www.w3.org/2000/svg" p-id="1658"
     width="15" height="15">
  <path
    d="M737.747654 470.209512a266.909228 266.909228 0 0 0 77.106393-111.470866 266.24 266.24 0 0 0 15.908284-90.958615C830.762331 120.122457 710.260913 0 562.151811 0H128.814362C106.65726 0 88.692913 17.907906 88.692913 39.992441v944.015118c0 22.084535 17.964346 39.992441 40.121449 39.992441h520.216189c44.120693 0 88.273638-9.111181 124.331339-25.664504a39.944063 39.944063 0 0 0 19.657575-53.062551 40.169827 40.169827 0 0 0-53.223811-19.601134c-25.753197 11.820346-57.989039 18.327181-90.765103 18.327181H168.943874V80.001008H562.151811c103.867465 0 188.359559 84.234079 188.359559 187.779023 0 21.931339-3.749291 43.386961-11.134992 63.786331C712.510488 405.729764 641.290079 455.559055 562.151811 455.559055c-1.935118 0-3.821858 0.185449-5.684409 0.451528H329.437732c-22.165165 0-40.121449 17.899843-40.121449 39.992441 0 22.092598 17.956283 40.008567 40.121449 40.008567h319.592819c112.494866 0 204.025953 91.789102 204.025953 204.606488 0 23.269795-3.354205 45.031811-9.957795 64.681323a39.968252 39.968252 0 0 0 25.293606 50.63559 40.137575 40.137575 0 0 0 50.79685-25.212976c9.361134-27.865701 14.110236-58.174488 14.110237-90.103937 0-125.927811-82.121575-232.996283-195.551748-270.400504z"
    fill="#919FA0" p-id="1659"></path>
</svg>
