<svg t="1665627459473" class="icon" viewBox="0 0 1024 1024" version="1.1" xmlns="http://www.w3.org/2000/svg" p-id="4138"
     width="16" height="16">
  <path
    d="M654.448882 0c22.173228 0 40.129512 17.875654 40.129512 39.919874 0 22.052283-17.964346 39.927937-40.129512 39.927937h-413.308976c-44.249701 0-80.259024 35.815811-80.259024 79.839748v822.392945c0 22.052283-17.964346 39.919874-40.121449 39.919874-22.165165 0-40.129512-17.867591-40.129512-39.911811V159.679496C80.629921 71.639685 152.632441 0 241.139906 0z m215.451212 637.992315a40.266583 40.266583 0 0 1 56.360315-6.643906 39.782803 39.782803 0 0 1 6.676158 56.070048l-106.915276 134.974488 106.915276 134.974488a39.782803 39.782803 0 0 1-6.692284 56.070047 40.089197 40.089197 0 0 1-24.801763 8.570961 40.129512 40.129512 0 0 1-31.542426-15.214866l-94.982047-119.896693-94.973984 119.896693a40.137575 40.137575 0 0 1-31.542425 15.214866 40.073071 40.073071 0 0 1-24.809827-8.570961 39.782803 39.782803 0 0 1-6.676157-56.061984l106.915275-134.974488-106.915275-134.982551a39.782803 39.782803 0 0 1 6.68422-56.070048 40.266583 40.266583 0 0 1 56.352252 6.643906l94.973984 119.896693zM600.273638 435.159685c22.173228 0 40.137575 17.867591 40.137575 39.919874 0 22.052283-17.972409 39.919874-40.129512 39.919874H283.277102c-22.173228 0-40.129512-17.867591-40.129511-39.911811 0-22.060346 17.964346-39.927937 40.129511-39.927937z"
    fill="#919FA0" p-id="4139"></path>
</svg>
