<svg t="1665627505869" class="icon" viewBox="0 0 1024 1024" version="1.1" xmlns="http://www.w3.org/2000/svg" p-id="4382"
     width="16" height="16">
  <path
    d="M984.019976 943.998992a39.992441 39.992441 0 1 1 0 80.001008H40.004858a39.992441 39.992441 0 1 1 0-80.001008z m0-236.003779a39.992441 39.992441 0 1 1 0 80.001007H424.004858a39.992441 39.992441 0 1 1 0-79.992944zM11.816637 297.629228a39.992441 39.992441 0 0 1 56.569953 0.185449l128.56441 129.435213c22.576378 22.576378 35.049827 52.70778 35.049826 84.758173 0 31.969764-12.417008 62.036661-34.969196 84.677543L68.604291 727.967244a39.879559 39.879559 0 0 1-28.59137 12.029984 39.992441 39.992441 0 0 1-28.59137-67.971023l128.564409-131.426772 0.314457-0.32252a39.750551 39.750551 0 0 0 11.715528-28.276913c0-10.683465-4.168567-20.72189-11.715528-28.284976L11.623126 354.191118a40.000504 40.000504 0 0 1 0.193511-56.569953z m972.187213 174.378331a39.992441 39.992441 0 1 1 0 80.001008H424.012921a39.992441 39.992441 0 1 1 0-80.001008z m0-236.003779a39.992441 39.992441 0 1 1 0 80.001007H424.012921a39.992441 39.992441 0 1 1 0-79.992944z m0-235.995717a39.992441 39.992441 0 1 1 0 80.001008H40.012921A39.992441 39.992441 0 1 1 40.004858 0z"
    fill="#919FA0" p-id="4383"></path>
</svg>
