<svg t="1665626517617" class="icon" viewBox="0 0 1024 1024" version="1.1" xmlns="http://www.w3.org/2000/svg" p-id="2697"
     width="15" height="15">
  <path
    d="M540.91389 203.590551a40.01663 40.01663 0 0 1 47.539401-30.695811 39.992441 39.992441 0 0 1 30.72 47.515213l-155.696378 723.580976h84.540473a40.008567 40.008567 0 1 1 0 80.009071H273.851465a40.008567 40.008567 0 0 1 0-80.009071h107.753826zM750.148535 0a40.008567 40.008567 0 0 1 40.01663 39.992441c0 22.092598-17.915969 40.008567-40.024693 40.008567H475.974551a40.008567 40.008567 0 0 1-40.024693-40.000504C435.949858 17.899843 453.865827 0 475.974551 0z"
    fill="#919FA0" p-id="2698"></path>
</svg>
