<svg t="1665626834522" class="icon" viewBox="0 0 1024 1024" version="1.1" xmlns="http://www.w3.org/2000/svg" p-id="3483"
     width="16" height="16">
  <path
    d="M118.00189 787.99622c65.068346 0 118.00189 52.941606 118.00189 118.00189a39.992441 39.992441 0 1 1-80.001008 0 38.041197 38.041197 0 0 0-38.000882-38.000882 38.041197 38.041197 0 0 0-38.000882 38.000882 38.041197 38.041197 0 0 0 38.000882 38.000882 39.992441 39.992441 0 1 1 0 80.001008C52.933543 1024 0 971.066457 0 905.99811S52.933543 787.99622 118.00189 787.99622z m865.997606 78.001386a39.992441 39.992441 0 1 1 0 80.001008H364.00378a39.992441 39.992441 0 1 1 0-80.001008zM118.00189 393.99811c65.068346 0 118.00189 52.933543 118.00189 118.00189a39.992441 39.992441 0 1 1-80.001008 0 38.041197 38.041197 0 0 0-38.000882-38.000882A38.041197 38.041197 0 0 0 80.001008 512a38.041197 38.041197 0 0 0 38.000882 38.000882 39.992441 39.992441 0 1 1 0 80.001008C52.933543 630.00189 0 577.068346 0 512s52.933543-118.00189 118.00189-118.00189z m865.997606 78.001386a39.992441 39.992441 0 1 1 0 80.001008H364.00378a39.992441 39.992441 0 1 1 0-80.001008zM118.00189 0c65.068346 0 118.00189 52.933543 118.00189 118.00189a39.992441 39.992441 0 1 1-80.001008 0l-0.040315-1.741607a38.04926 38.04926 0 0 0-37.960567-36.259275 38.041197 38.041197 0 0 0-38.000882 38.000882 38.041197 38.041197 0 0 0 38.000882 38.000882l1.733543 0.032252a40.000504 40.000504 0 0 1-1.733543 79.968756C52.933543 236.00378 0 183.062173 0 118.00189 0 52.933543 52.933543 0 118.00189 0z m865.997606 78.001386a39.992441 39.992441 0 1 1 0 80.001008H364.00378a39.992441 39.992441 0 1 1 0-80.001008z"
    fill="#919FA0" p-id="3484"></path>
</svg>
