<svg t="1665626816939" class="icon" viewBox="0 0 1024 1024" version="1.1" xmlns="http://www.w3.org/2000/svg" p-id="3262"
     width="16" height="16">
  <path
    d="M101.286008 722.593097c55.029215 0 99.802436 44.773221 99.802436 99.802435 0 20.471674-7.337229 37.242483-16.980444 50.46562 9.949605 13.126383 16.980443 29.55855 16.980444 49.344879 0 50.40918-37.573061 92.191069-86.19228 98.851015a39.782293 39.782293 0 0 1-15.029224 2.942954c-34.380157 0-67.292869-18.746216-85.88589-48.925608a39.919362 39.919362 0 1 1 67.978214-41.878644c2.709131 4.402337 7.167908 7.92582 11.796006 9.699655 2.443055-0.467648 4.958677-0.72566 7.530738-0.72566 10.820397 0 19.963712-9.151379 19.963712-19.971775-0.927232-3.023583-9.409391-8.990121-13.618219-10.594636a39.927425 39.927425 0 0 1-23.116301-51.505732 39.741978 39.741978 0 0 1 19.995963-21.737548l-0.008062-0.032252-0.36283 0.177384c8.490222-4.321708 17.10945-13.013502 17.109449-16.109652 0-10.820397-9.143316-19.963712-19.955649-19.963712-0.241887 0-0.467648-0.032252-0.709534-0.032251-0.241887 0-0.467648 0.032252-0.709535 0.032251-7.522675 0-14.553514 3.523482-17.907675 8.965932a39.895173 39.895173 0 0 1-54.932461 13.045754 39.919362 39.919362 0 0 1-13.045753-54.93246c17.83511-28.94577 50.739758-46.926012 85.885889-46.926012 0.241887 0 0.467648 0.040314 0.701472 0.040314 0.241887 0 0.467648-0.032252 0.709534-0.032251z m880.846395 109.784292a39.919362 39.919362 0 0 1 0 79.838723H363.354077a39.919362 39.919362 0 0 1 0-79.838723zM101.286008 353.312797c55.037278 0 99.802436 44.773221 99.802436 99.810499 0 21.068328-7.627493 53.658524-65.938304 119.758084H163.741143a39.919362 39.919362 0 1 1 0 79.846787H39.983866a39.919362 39.919362 0 0 1-26.801042-69.5021c0.266075-0.241887 27.954035-25.422288 55.787126-56.109642 46.966326-51.795997 51.884688-72.356363 52.271707-74.420463-0.233824-10.626887-9.272322-19.536379-19.955649-19.536379-0.241887 0-0.467648-0.032252-0.709534-0.032251-0.233824 0-0.467648 0.032252-0.701472 0.032251-10.820397 0-19.963712 9.143316-19.963712 19.963713a39.919362 39.919362 0 0 1-79.846786 0C0.064504 398.077955 44.837725 353.312797 99.883065 353.312797l0.701472 0.040314z m880.846395 117.774614a39.919362 39.919362 0 1 1 0 79.838724H363.354077a39.919362 39.919362 0 0 1 0-79.838724zM95.375911 8.382421a39.919362 39.919362 0 0 1 64.374102 31.550083v199.612934a39.919362 39.919362 0 0 1-79.838723 0V121.383805l-15.472683 11.981453a39.919362 39.919362 0 0 1-48.909483-63.10823z m886.756492 91.433157a39.919362 39.919362 0 0 1 0 79.838723H363.354077a39.919362 39.919362 0 1 1 0-79.838723z"
    fill="#919FA0" p-id="3263"></path>
</svg>
