<svg t="1665627661268" class="icon" viewBox="0 0 1024 1024" version="1.1" xmlns="http://www.w3.org/2000/svg" p-id="4620"
     width="16" height="16">
  <path
    d="M984.019654 943.998992a39.992441 39.992441 0 1 1 0 80.001008H40.004535a39.992441 39.992441 0 1 1 0-80.001008z m0-236.003779a39.992441 39.992441 0 1 1 0 80.001007H424.004535a39.992441 39.992441 0 1 1 0-79.992944zM163.626331 295.823118a39.992441 39.992441 0 1 1 56.755401 56.376441L91.825386 481.618646a39.823118 39.823118 0 0 0-11.812284 28.381732 39.750551 39.750551 0 0 0 11.715528 28.284976l128.661165 129.523906a40.000504 40.000504 0 0 1-56.763464 56.384504L35.069984 594.758551A119.138772 119.138772 0 0 1 0.012094 510.000378c0-32.050394 12.481512-62.189858 35.146583-84.854929z m820.377197 176.184441a39.992441 39.992441 0 1 1 0 80.001008H424.012598a39.992441 39.992441 0 1 1 0-80.001008z m0-236.003779a39.992441 39.992441 0 1 1 0 80.001007H424.012598a39.992441 39.992441 0 1 1 0-79.992944z m0-235.995717a39.992441 39.992441 0 1 1 0 80.001008H40.012598A39.992441 39.992441 0 1 1 40.004535 0z"
    fill="#919FA0" p-id="4621"></path>
</svg>
