<svg t="1665626761431" class="icon" viewBox="0 0 1024 1024" version="1.1" xmlns="http://www.w3.org/2000/svg" p-id="3047"
     width="15" height="15">
  <path
    d="M734.361197 618.399244a40.000504 40.000504 0 0 1 56.497386 2.693039c40.572976 44.636724 61.141669 97.384819 61.141669 156.792945 0 68.632189-37.371969 132.096-105.222047 178.716221C683.524031 1000.052913 600.136567 1024 512 1024c-88.14463 0-171.524031-23.939024-234.786268-67.406614-67.850079-46.604094-105.222047-110.075969-105.222047-178.708158a39.992441 39.992441 0 1 1 80.009071 0c0 41.484094 25.043654 81.532976 70.518929 112.777071 50.063118 34.396724 117.35685 53.336693 189.480315 53.336693s139.417197-18.948031 189.480315-53.336693c45.475276-31.244094 70.518929-71.292976 70.518929-112.777071 0-39.428031-13.191055-73.123276-40.33915-102.980535a40.000504 40.000504 0 0 1 2.701103-56.505449zM512 0c76.517795 0 148.794457 24.648567 203.509921 69.406236 57.069858 46.668598 88.491339 109.422866 88.491339 176.708536a39.992441 39.992441 0 1 1-80.001008 0c0-91.595591-95.102992-166.113764-212.000252-166.113764s-212.000252 74.518173-212.000252 166.113764c0 108.640756 77.791748 163.888378 221.530709 225.884724h462.469039a39.992441 39.992441 0 1 1 0 80.001008H40.000504a39.992441 39.992441 0 1 1 0-80.001008H348.724409a394.070677 394.070677 0 0 1-37.025259-28.438173c-61.706079-53.933354-91.700409-118.525984-91.70041-197.446551 0-67.285669 31.42148-130.039937 88.483276-176.708536C363.205543 24.65663 435.482205 0 512 0z"
    fill="#919FA0" p-id="3048"></path>
</svg>
