<svg t="1665630026958" class="icon" viewBox="0 0 1024 1024" version="1.1" xmlns="http://www.w3.org/2000/svg" p-id="5102"
     width="16" height="16">
  <path
    d="M857.817593 710.812945a39.935522 39.935522 0 0 1 56.561213 0.330579l78.863182 79.951673c38.379383 38.976037 38.331006 102.293957-0.080629 141.181302l-78.822867 79.669472a39.830704 39.830704 0 0 1-28.397519 11.868582 39.830704 39.830704 0 0 1-28.155631-11.610569 40.120969 40.120969 0 0 1-0.24995-56.666031l53.35218-53.940771H39.99809A40.032277 40.032277 0 0 1 0.006128 861.532653c0-22.124586 17.899628-40.072591 39.991962-40.072591h870.736287l-53.239299-53.973023a40.120969 40.120969 0 0 1 0.322515-56.666031z m0-350.615016a39.935522 39.935522 0 0 1 56.561213 0.322516l78.863182 79.951673c38.379383 38.976037 38.331006 102.30202-0.088692 141.181302L914.338492 661.330955a39.830704 39.830704 0 0 1-28.405582 11.868582 39.830704 39.830704 0 0 1-28.147568-11.61057 40.120969 40.120969 0 0 1-0.24995-56.674093l53.35218-53.940772H39.99809A40.032277 40.032277 0 0 1 0.006128 510.917637c0-22.132648 17.899628-40.072591 39.991962-40.072591h870.736287L857.495078 416.863959a40.120969 40.120969 0 0 1 0.322515-56.66603zM160.199738 0.173514c88.208078 0 159.967849 71.89684 159.967849 160.274239v190.340777c0 22.132648-17.899628 40.072591-39.991962 40.072591a40.032277 40.032277 0 0 1-39.991962-40.072591v-80.145183H80.207751v80.145183c0 22.132648-17.899628 40.072591-39.991963 40.072591a40.032277 40.032277 0 0 1-39.991962-40.072591V160.455816C0.223826 72.094542 71.983597 0.181576 160.191675 0.181576z m697.633981 11.400934a39.935522 39.935522 0 0 1 56.55315 0.330579l78.855119 79.94361c38.379383 38.976037 38.339069 102.30202-0.080629 141.189365l-78.814804 79.669472a39.830704 39.830704 0 0 1-28.405582 11.868582 39.830704 39.830704 0 0 1-28.155631-11.61057 40.120969 40.120969 0 0 1-0.241887-56.66603l53.35218-53.940772H459.913694a40.032277 40.032277 0 0 1-39.991962-40.072591c0-22.124586 17.899628-40.072591 39.991962-40.072591h450.81262l-53.239299-53.973024a40.120969 40.120969 0 0 1 0.322515-56.66603zM160.191675 80.318696c-44.104039 0-79.983925 35.960514-79.983924 80.145183v30.050412h159.967849v-30.058475c0-44.184668-35.879886-80.13712-79.983925-80.13712z"
    fill="#919FA0" p-id="5103"></path>
</svg>
