<svg t="1665626540280" class="icon" viewBox="0 0 1032 1024" version="1.1" xmlns="http://www.w3.org/2000/svg" p-id="2872"
     width="15" height="15">
  <path
    d="M991.825191 941.600514a40.309838 40.309838 0 1 1 0 80.635931H40.317965a40.309838 40.309838 0 1 1 0-80.635931zM173.364812 0.000081a40.309838 40.309838 0 0 1 40.309838 40.309838v398.531016c0 166.074907 135.655608 301.186008 302.388801 301.186008a302.510706 302.510706 0 0 0 158.785003-44.812187 40.309838 40.309838 0 1 1 42.292822 68.64863A383.106001 383.106001 0 0 1 516.071578 820.662873c-211.19592 0-383.024732-171.284304-383.024731-381.813811V40.309919A40.309838 40.309838 0 0 1 173.381066 0.000081z m685.397279 0a40.309838 40.309838 0 0 1 40.309838 40.309838v398.531016c0 58.774345-13.043808 115.159356-38.781966 167.610908a40.317965 40.317965 0 1 1-72.387041-35.523045c20.26057-41.293203 30.541204-85.739676 30.541204-132.087863V40.309919A40.309838 40.309838 0 0 1 858.770218 0.000081z"
    fill="#919FA0" p-id="2873"></path>
</svg>
